<?xml version="1.0" encoding="utf-8"?>
<!-- Generator: Adobe Illustrator 22.0.1, SVG Export Plug-In . SVG Version: 6.00 Build 0)  -->
<svg version="1.1" id="Capa_1" xmlns="http://www.w3.org/2000/svg" xmlns:xlink="http://www.w3.org/1999/xlink" x="0px" y="0px"
	 viewBox="0 0 1550.1 990.9" style="enable-background:new 0 0 1550.1 990.9;" xml:space="preserve">
<style type="text/css">
	.st0{fill:#FFFFFF;stroke:#FFFFFF;stroke-miterlimit:10;}
	.st1{fill:none;}
</style>
<title>emi</title>
<path class="st0" d="M1542.3,255.2l-8.4-10.3L1306.5,18.4c-38.4-40.2-71.1,0-71.1,0l-232.1,231.2c0,0-31.4,27.5,0,54.3
	c0,0,28.1,29.9,57.1,0l211.5-209.7l209.7,209.7c0,0,22.5,26.2,54.3,4.7C1535.8,308.5,1562,286.1,1542.3,255.2z"/>
<path class="st0" d="M185.9,431.8l4,4.9l108.3,107.8c18.3,19.2,33.9,0,33.9,0l110.5-110c0,0,14.9-13.1,0-25.8c0,0-13.4-14.3-27.2,0
	l-100.7,99.8l-99.8-99.8c0,0-10.7-12.5-25.8-2.3C189,406.4,176.5,417.1,185.9,431.8z"/>
<path class="st0" d="M648.9,755.8l-1.7-2.1l-45.5-45.3c-7.7-8-14.2,0-14.2,0l-46.4,46.2c0,0-6.3,5.5,0,10.8c0,0,5.6,6,11.4,0
	l42.3-41.9l41.9,41.9c0,0,4.5,5.2,10.8,0.9C647.6,766.5,652.8,762,648.9,755.8z"/>
<path class="st0" d="M1226.1,606.4l3.3,4l87.9,87.7c14.8,15.6,27.5,0,27.5,0l89.9-89.5c0,0,12.1-10.6,0-21c0,0-11-11.6-22,0
	l-81.9,81.1l-81.2-81.1c-5.5-6-14.6-6.8-21-1.8C1222.7,591,1221.6,599.8,1226.1,606.4z"/>
<rect y="81.9" class="st1" width="1440" height="909"/>
</svg>
